<svg width="62" height="50" viewBox="0 0 62 50" fill="none" xmlns="http://www.w3.org/2000/svg">
<path d="M58.3117 0.000220904H50.645V5.75022C50.645 6.30396 50.536 6.85228 50.324 7.36387C50.1121 7.87546 49.8015 8.3403 49.41 8.73186C49.0184 9.12341 48.5536 9.43401 48.042 9.64591C47.5304 9.85782 46.9821 9.96689 46.4284 9.96689C45.8746 9.96689 45.3263 9.85782 44.8147 9.64591C44.3031 9.43401 43.8383 9.12341 43.4467 8.73186C43.0552 8.3403 42.7446 7.87546 42.5327 7.36387C42.3208 6.85228 42.2117 6.30396 42.2117 5.75022V0.000220904H19.8825V5.75022C19.8825 6.86855 19.4383 7.94108 18.6475 8.73185C17.8567 9.52263 16.7842 9.96689 15.6659 9.96689C14.5475 9.96689 13.475 9.52263 12.6842 8.73185C11.8934 7.94108 11.4492 6.86855 11.4492 5.75022V0.000220904H3.78252C3.3264 -0.00496968 2.87387 0.0813606 2.45169 0.254106C2.02952 0.426852 1.64627 0.682506 1.32462 1.00595C1.00296 1.32939 0.749437 1.71404 0.579033 2.13717C0.408629 2.5603 0.324806 3.0133 0.332524 3.46939V46.3644C0.324909 46.8124 0.405633 47.2576 0.570087 47.6744C0.73454 48.0913 0.9795 48.4716 1.29098 48.7938C1.60245 49.1159 1.97434 49.3736 2.3854 49.552C2.79646 49.7304 3.23865 49.8261 3.68669 49.8336H58.3117C58.7597 49.8261 59.2019 49.7304 59.613 49.552C60.024 49.3736 60.3959 49.1159 60.7074 48.7938C61.0189 48.4716 61.2638 48.0913 61.4283 47.6744C61.5927 47.2576 61.6735 46.8124 61.6659 46.3644V3.46939C61.6735 3.02134 61.5927 2.57619 61.4283 2.15935C61.2638 1.74251 61.0189 1.36215 60.7074 1.03999C60.3959 0.71784 60.024 0.460201 59.613 0.281794C59.2019 0.103388 58.7597 0.00770858 58.3117 0.000220904ZM15.6659 38.3336H11.8325V34.5002H15.6659V38.3336ZM15.6659 28.7502H11.8325V24.9169H15.6659V28.7502ZM15.6659 19.1669H11.8325V15.3336H15.6659V19.1669ZM27.1659 38.3336H23.3325V34.5002H27.1659V38.3336ZM27.1659 28.7502H23.3325V24.9169H27.1659V28.7502ZM27.1659 19.1669H23.3325V15.3336H27.1659V19.1669ZM38.6659 38.3336H34.8325V34.5002H38.6659V38.3336ZM38.6659 28.7502H34.8325V24.9169H38.6659V28.7502ZM38.6659 19.1669H34.8325V15.3336H38.6659V19.1669ZM50.1659 38.3336H46.3325V34.5002H50.1659V38.3336ZM50.1659 28.7502H46.3325V24.9169H50.1659V28.7502ZM50.1659 19.1669H46.3325V15.3336H50.1659V19.1669Z" fill="black"/>
</svg>
