<svg width="58" height="58" viewBox="0 0 58 58" fill="none" xmlns="http://www.w3.org/2000/svg">
<path d="M29 0.25C44.8786 0.25 57.75 13.1214 57.75 29C57.75 44.8786 44.8786 57.75 29 57.75C13.1214 57.75 0.25 44.8786 0.25 29C0.25 13.1214 13.1214 0.25 29 0.25ZM29 11.75C28.2375 11.75 27.5062 12.0529 26.9671 12.5921C26.4279 13.1312 26.125 13.8625 26.125 14.625V29C26.1252 29.7624 26.4282 30.4936 26.9674 31.0326L35.5924 39.6576C36.1346 40.1813 36.8608 40.4711 37.6147 40.4646C38.3685 40.458 39.0896 40.1557 39.6226 39.6226C40.1557 39.0896 40.458 38.3685 40.4646 37.6147C40.4711 36.8608 40.1813 36.1346 39.6576 35.5924L31.875 27.8098V14.625C31.875 13.8625 31.5721 13.1312 31.0329 12.5921C30.4938 12.0529 29.7625 11.75 29 11.75Z" fill="black"/>
</svg>
