<svg width="210" height="86" viewBox="0 0 210 86" fill="none" xmlns="http://www.w3.org/2000/svg">
<path d="M8.20505 57.1983L1 39.7815L18.4168 32.5764L92.6308 58.3375L134.784 40.8992L155.255 47.5072L158.283 54.8273L84.8298 85.2138L8.20505 57.1983Z" fill="black"/>
<path d="M54.1449 38.1936L51.2211 31.126L125.179 0.530609L202.204 28.0849L209.618 46.0065L191.444 53.5248L117.779 26.9456L74.6154 44.8016L54.1449 38.1936Z" fill="black"/>
<path d="M8.20505 57.1983L1 39.7815L18.4168 32.5764L92.6308 58.3375L134.784 40.8992L155.255 47.5072L158.283 54.8273L84.8298 85.2138L8.20505 57.1983Z" stroke="black" stroke-width="0.543353"/>
<path d="M54.1449 38.1936L51.2211 31.126L125.179 0.530609L202.204 28.0849L209.618 46.0065L191.444 53.5248L117.779 26.9456L74.6154 44.8016L54.1449 38.1936Z" stroke="black" stroke-width="0.543353"/>
</svg>
