<svg width="42" height="58" viewBox="0 0 42 58" fill="none" xmlns="http://www.w3.org/2000/svg">
<path d="M21 27.5625C19.0938 27.5625 17.2656 26.8052 15.9177 25.4573C14.5698 24.1094 13.8125 22.2812 13.8125 20.375C13.8125 18.4688 14.5698 16.6406 15.9177 15.2927C17.2656 13.9448 19.0938 13.1875 21 13.1875C22.9062 13.1875 24.7344 13.9448 26.0823 15.2927C27.4302 16.6406 28.1875 18.4688 28.1875 20.375C28.1875 21.3189 28.0016 22.2535 27.6404 23.1255C27.2792 23.9976 26.7498 24.7899 26.0823 25.4573C25.4149 26.1248 24.6226 26.6542 23.7505 27.0154C22.8785 27.3766 21.9439 27.5625 21 27.5625ZM21 0.25C15.6625 0.25 10.5436 2.37031 6.76948 6.14448C2.99531 9.91864 0.875 15.0375 0.875 20.375C0.875 35.4688 21 57.75 21 57.75C21 57.75 41.125 35.4688 41.125 20.375C41.125 15.0375 39.0047 9.91864 35.2305 6.14448C31.4564 2.37031 26.3375 0.25 21 0.25Z" fill="black"/>
</svg>
