<svg width="59" height="58" viewBox="0 0 59 58" fill="none" xmlns="http://www.w3.org/2000/svg">
<path d="M10.8125 14.625C9.66875 14.625 8.57185 14.1706 7.7631 13.3619C6.95435 12.5531 6.5 11.4562 6.5 10.3125C6.5 9.16875 6.95435 8.07185 7.7631 7.2631C8.57185 6.45435 9.66875 6 10.8125 6C11.9562 6 13.0531 6.45435 13.8619 7.2631C14.6706 8.07185 15.125 9.16875 15.125 10.3125C15.125 11.4562 14.6706 12.5531 13.8619 13.3619C13.0531 14.1706 11.9562 14.625 10.8125 14.625ZM56.5537 27.7925L30.6787 1.9175C29.6437 0.8825 28.2062 0.25 26.625 0.25H6.5C3.30875 0.25 0.75 2.80875 0.75 6V26.125C0.75 27.7062 1.3825 29.1437 2.44625 30.1787L28.2925 56.0537C29.3562 57.0887 30.7938 57.75 32.375 57.75C33.9562 57.75 35.3937 57.0887 36.4287 56.0537L56.5537 35.9287C57.6175 34.8937 58.25 33.4562 58.25 31.875C58.25 30.265 57.5887 28.8275 56.5537 27.7925Z" fill="black"/>
</svg>
