<svg width="502" height="162" viewBox="0 0 502 162" fill="none" xmlns="http://www.w3.org/2000/svg">
<mask id="path-1-inside-1_2581_471" fill="white">
<path d="M208.294 81.6797L128.611 162H57.2275L140.866 82.1631L141.368 81.6846L140.876 81.1953C126.138 66.5701 103.997 44.6324 85.4736 26.3506C76.2121 17.21 67.8541 8.98251 61.7773 3.04004C60.6589 1.94634 59.6167 0.930713 58.6611 0H125.357L208.294 81.6797ZM383.794 81.6797L304.111 162H232.728L316.366 82.1631L316.868 81.6846L316.376 81.1953C301.638 66.5701 279.497 44.6324 260.974 26.3506C251.712 17.21 243.354 8.98251 237.277 3.04004C236.159 1.94634 235.117 0.930713 234.161 0H300.857L383.794 81.6797ZM559.294 81.6797L479.611 162H408.228L491.866 82.1631L492.368 81.6846L491.876 81.1953C477.138 66.5701 454.997 44.6324 436.474 26.3506C427.212 17.21 418.854 8.98251 412.777 3.04004C411.659 1.94634 410.617 0.930714 409.661 0H476.357L559.294 81.6797ZM32.7939 81.6797L0 114.735V49.3818L32.7939 81.6797Z"/>
</mask>
<path d="M208.294 81.6797L211.844 85.2011L215.378 81.6385L211.802 78.1173L208.294 81.6797ZM128.611 162V167H130.694L132.161 165.521L128.611 162ZM57.2275 162L53.7752 158.383L44.7481 167H57.2275V162ZM140.866 82.1631L137.416 78.5441L137.414 78.5463L140.866 82.1631ZM141.368 81.6846L144.818 85.3036L148.536 81.7595L144.893 78.1385L141.368 81.6846ZM140.876 81.1953L144.401 77.6492L144.398 77.6463L140.876 81.1953ZM85.4736 26.3506L88.9859 22.7919L85.4736 26.3506ZM61.7773 3.04004L58.2815 6.61486L61.7773 3.04004ZM58.6611 0V-5H46.3613L55.1725 3.58186L58.6611 0ZM125.357 0L128.866 -3.56242L127.406 -5H125.357V0ZM383.794 81.6797L387.344 85.2011L390.878 81.6385L387.302 78.1173L383.794 81.6797ZM304.111 162V167H306.194L307.661 165.521L304.111 162ZM232.728 162L229.275 158.383L220.248 167H232.728V162ZM316.366 82.1631L312.916 78.5441L312.914 78.5463L316.366 82.1631ZM316.868 81.6846L320.318 85.3036L324.036 81.7595L320.393 78.1385L316.868 81.6846ZM316.376 81.1953L319.901 77.6492L319.898 77.6463L316.376 81.1953ZM260.974 26.3506L264.486 22.7919H264.486L260.974 26.3506ZM237.277 3.04004L233.782 6.61486L237.277 3.04004ZM234.161 0V-5H221.861L230.673 3.58186L234.161 0ZM300.857 0L304.366 -3.56242L302.906 -5H300.857V0ZM559.294 81.6797L562.844 85.2011L566.378 81.6385L562.802 78.1173L559.294 81.6797ZM479.611 162V167H481.694L483.161 165.521L479.611 162ZM408.228 162L404.775 158.383L395.748 167H408.228V162ZM491.866 82.1631L488.416 78.5441L488.414 78.5463L491.866 82.1631ZM492.368 81.6846L495.818 85.3036L499.536 81.7595L495.893 78.1385L492.368 81.6846ZM491.876 81.1953L495.401 77.6492L495.398 77.6463L491.876 81.1953ZM436.474 26.3506L439.986 22.7919H439.986L436.474 26.3506ZM412.777 3.04004L409.282 6.61486L412.777 3.04004ZM409.661 0V-5H397.361L406.173 3.58186L409.661 0ZM476.357 0L479.866 -3.56242L478.406 -5H476.357V0ZM32.7939 81.6797L36.3435 85.2011L39.8778 81.6386L36.3024 78.1173L32.7939 81.6797ZM0 114.735H-5V126.875L3.54956 118.257L0 114.735ZM0 49.3818L3.50849 45.8195L-5 37.4397V49.3818H0ZM208.294 81.6797L204.744 78.1583L125.062 158.479L128.611 162L132.161 165.521L211.844 85.2011L208.294 81.6797ZM128.611 162V157H57.2275V162V167H128.611V162ZM57.2275 162L60.6799 165.617L144.319 85.7799L140.866 82.1631L137.414 78.5463L53.7752 158.383L57.2275 162ZM140.866 82.1631L144.316 85.7821L144.818 85.3036L141.368 81.6846L137.918 78.0656L137.416 78.5441L140.866 82.1631ZM141.368 81.6846L144.893 78.1385L144.401 77.6492L140.876 81.1953L137.351 84.7414L137.843 85.2306L141.368 81.6846ZM140.876 81.1953L144.398 77.6463C129.658 63.0192 107.514 41.078 88.9859 22.7919L85.4736 26.3506L81.9614 29.9093C100.481 48.1867 122.618 70.121 137.354 84.7444L140.876 81.1953ZM85.4736 26.3506L88.9859 22.7919C79.723 13.65 71.3584 5.41599 65.2731 -0.534784L61.7773 3.04004L58.2815 6.61486C64.3498 12.549 72.7011 20.7699 81.9614 29.9093L85.4736 26.3506ZM61.7773 3.04004L65.2731 -0.534784C64.151 -1.6321 63.1059 -2.65056 62.1497 -3.58186L58.6611 0L55.1725 3.58186C56.1275 4.51198 57.1668 5.52478 58.2815 6.61486L61.7773 3.04004ZM58.6611 0V5H125.357V0V-5H58.6611V0ZM125.357 0L121.849 3.56242L204.786 85.2421L208.294 81.6797L211.802 78.1173L128.866 -3.56242L125.357 0ZM383.794 81.6797L380.244 78.1583L300.562 158.479L304.111 162L307.661 165.521L387.344 85.2011L383.794 81.6797ZM304.111 162V157H232.728V162V167H304.111V162ZM232.728 162L236.18 165.617L319.819 85.7799L316.366 82.1631L312.914 78.5463L229.275 158.383L232.728 162ZM316.366 82.1631L319.816 85.7821L320.318 85.3036L316.868 81.6846L313.418 78.0656L312.916 78.5441L316.366 82.1631ZM316.868 81.6846L320.393 78.1385L319.901 77.6492L316.376 81.1953L312.851 84.7414L313.343 85.2306L316.868 81.6846ZM316.376 81.1953L319.898 77.6463C305.158 63.0192 283.014 41.078 264.486 22.7919L260.974 26.3506L257.461 29.9093C275.981 48.1867 298.118 70.121 312.854 84.7444L316.376 81.1953ZM260.974 26.3506L264.486 22.7919C255.223 13.65 246.858 5.41599 240.773 -0.534784L237.277 3.04004L233.782 6.61486C239.85 12.549 248.201 20.7699 257.461 29.9093L260.974 26.3506ZM237.277 3.04004L240.773 -0.534784C239.651 -1.6321 238.606 -2.65056 237.65 -3.58186L234.161 0L230.673 3.58186C231.628 4.51198 232.667 5.52478 233.782 6.61486L237.277 3.04004ZM234.161 0V5H300.857V0V-5H234.161V0ZM300.857 0L297.349 3.56242L380.286 85.2421L383.794 81.6797L387.302 78.1173L304.366 -3.56242L300.857 0ZM559.294 81.6797L555.744 78.1583L476.062 158.479L479.611 162L483.161 165.521L562.844 85.2011L559.294 81.6797ZM479.611 162V157H408.228V162V167H479.611V162ZM408.228 162L411.68 165.617L495.319 85.7799L491.866 82.1631L488.414 78.5463L404.775 158.383L408.228 162ZM491.866 82.1631L495.316 85.7821L495.818 85.3036L492.368 81.6846L488.918 78.0656L488.416 78.5441L491.866 82.1631ZM492.368 81.6846L495.893 78.1385L495.401 77.6492L491.876 81.1953L488.351 84.7414L488.843 85.2306L492.368 81.6846ZM491.876 81.1953L495.398 77.6463C480.658 63.0192 458.514 41.078 439.986 22.7919L436.474 26.3506L432.961 29.9093C451.481 48.1867 473.618 70.121 488.354 84.7444L491.876 81.1953ZM436.474 26.3506L439.986 22.7919C430.723 13.65 422.358 5.41599 416.273 -0.534784L412.777 3.04004L409.282 6.61486C415.35 12.549 423.701 20.7699 432.961 29.9093L436.474 26.3506ZM412.777 3.04004L416.273 -0.534784C415.151 -1.6321 414.106 -2.65056 413.15 -3.58186L409.661 0L406.173 3.58186C407.128 4.51198 408.167 5.52478 409.282 6.61486L412.777 3.04004ZM409.661 0V5H476.357V0V-5H409.661V0ZM476.357 0L472.849 3.56242L555.786 85.2421L559.294 81.6797L562.802 78.1173L479.866 -3.56242L476.357 0ZM32.7939 81.6797L29.2444 78.1582L-3.54956 111.214L0 114.735L3.54956 118.257L36.3435 85.2011L32.7939 81.6797ZM0 114.735H5V49.3818H0H-5V114.735H0ZM0 49.3818L-3.50849 52.9442L29.2855 85.2421L32.7939 81.6797L36.3024 78.1173L3.50849 45.8195L0 49.3818Z" fill="black" mask="url(#path-1-inside-1_2581_471)"/>
</svg>
