<svg width="33" height="33" viewBox="0 0 33 33" fill="none" xmlns="http://www.w3.org/2000/svg">
<path d="M17.1567 15.1385H1V1H17.1567L31.9983 15.1385C31.9356 20.7311 31.848 31.9162 31.9983 31.9162C32.1861 31.9162 17.1567 32.1047 17.1567 31.9162C17.1567 31.7277 16.9688 15.1385 17.1567 15.1385Z" fill="black"/>
<path d="M17.1567 15.1385H1V1H17.1567L31.9983 15.1385C31.9356 20.7311 31.848 31.9162 31.9983 31.9162C32.1861 31.9162 17.1567 32.1047 17.1567 31.9162C17.1567 31.7277 16.9688 15.1385 17.1567 15.1385Z" fill="black"/>
<path d="M17.1567 15.1385H1V1H17.1567L31.9983 15.1385C31.9356 20.7311 31.848 31.9162 31.9983 31.9162C32.1861 31.9162 17.1567 32.1047 17.1567 31.9162C17.1567 31.7277 16.9688 15.1385 17.1567 15.1385Z" stroke="black"/>
</svg>
