<svg width="1724" height="1117" viewBox="0 0 1724 1117" fill="none" xmlns="http://www.w3.org/2000/svg">
<path d="M912.548 692.785C909.857 407.783 963.529 276.425 1190.55 109.785" stroke="black" stroke-opacity="0.5"/>
<path d="M912.807 693.336C1078 391 1169.5 260.5 1448.5 164" stroke="black" stroke-opacity="0.5"/>
<path d="M912.807 693.336C1078 391 1574 508.5 1610.5 286.5" stroke="black" stroke-opacity="0.5"/>
<path d="M912.808 693.336C1207.5 693.336 1500.5 366.5 1723.5 525" stroke="black" stroke-opacity="0.5"/>
<path d="M912.808 693.336C1207.5 693.336 1435 854 1481.5 1108.5" stroke="black" stroke-opacity="0.5"/>
<path d="M904.807 692.334C564.5 592.498 395 370.998 1 255.998" stroke="black" stroke-opacity="0.5"/>
<path d="M904.807 692.334C553.5 748.998 595 899.498 652 1099" stroke="black" stroke-opacity="0.5"/>
<path d="M904.807 692.334C553.5 748.998 644 1310 80.0001 901.998" stroke="black" stroke-opacity="0.5"/>
<path d="M904.807 692.334C709.5 860.998 822 948.498 625 1115.5" stroke="black" stroke-opacity="0.5"/>
<path d="M904.808 692.334C753.5 863.498 939.5 948.498 649.5 1099" stroke="black" stroke-opacity="0.5"/>
<path d="M912.808 693.336C912.807 739 967 952.5 942.001 1105.5" stroke="black" stroke-opacity="0.5"/>
<path d="M912.808 693.336C1043.5 782.5 1164 988 1191 1108.5" stroke="black" stroke-opacity="0.5"/>
<path d="M904.808 692.334C756 483.498 343 121.998 135 9.99805" stroke="black" stroke-opacity="0.5"/>
</svg>
